<svg width="20" height="20" viewBox="0 0 20 20" fill="none" xmlns="http://www.w3.org/2000/svg">
<path fill-rule="evenodd" clip-rule="evenodd" d="M5.404 14.596C4.6481 13.8402 4.09028 12.9096 3.77995 11.8866C3.46961 10.8637 3.41635 9.78005 3.62488 8.73163C3.8334 7.6832 4.29728 6.70239 4.97542 5.87607C5.65355 5.04975 6.52502 4.40343 7.51261 3.99437C8.50021 3.5853 9.57344 3.42612 10.6373 3.53092C11.7011 3.63572 12.7226 4.00127 13.6114 4.59518C14.5002 5.18909 15.2288 5.99304 15.7326 6.9358C16.2365 7.87856 16.5001 8.93104 16.5 10C16.5 10.3315 16.3683 10.6495 16.1339 10.8839C15.8995 11.1183 15.5815 11.25 15.25 11.25C14.9185 11.25 14.6005 11.1183 14.3661 10.8839C14.1317 10.6495 14 10.3315 14 10C13.9999 9.03256 13.6492 8.09794 13.0128 7.36926C12.3765 6.64057 11.4976 6.16722 10.539 6.03687C9.58033 5.90652 8.60696 6.12801 7.79913 6.66031C6.9913 7.19261 6.40376 7.99965 6.14534 8.93194C5.88693 9.86423 5.97515 10.8586 6.39366 11.7308C6.81218 12.603 7.53263 13.294 8.42156 13.6758C9.31049 14.0576 10.3077 14.1042 11.2283 13.8071C12.149 13.51 12.9309 12.8893 13.429 12.06C13.8257 12.4106 14.3152 12.6392 14.8386 12.7184C15.3621 12.7976 15.8972 12.724 16.3799 12.5065C16.8626 12.2889 17.2722 11.9367 17.5595 11.4921C17.8469 11.0475 17.9999 10.5294 18 10C17.9999 8.14916 17.3581 6.3556 16.1839 4.92492C15.0097 3.49425 13.3757 2.51497 11.5605 2.15395C9.74517 1.79293 7.86086 2.07251 6.2286 2.94504C4.59633 3.81757 3.3171 5.22908 2.60887 6.93905C1.90064 8.64902 1.80723 10.5517 2.34455 12.3228C2.88187 14.0939 4.01668 15.6239 5.55563 16.6522C7.09457 17.6804 8.94243 18.1432 10.7844 17.9617C12.6263 17.7803 14.3483 16.9658 15.657 15.657C15.7895 15.5148 15.8616 15.3268 15.8582 15.1325C15.8547 14.9382 15.776 14.7528 15.6386 14.6154C15.5012 14.478 15.3158 14.3993 15.1215 14.3958C14.9272 14.3924 14.7392 14.4645 14.597 14.597C13.9934 15.2007 13.2768 15.6795 12.4881 16.0062C11.6995 16.333 10.8542 16.5011 10.0005 16.5011C9.14684 16.5011 8.30153 16.333 7.51286 16.0062C6.72419 15.6795 6.00759 15.2007 5.404 14.597V14.596ZM10 7.5C9.33696 7.5 8.70108 7.76339 8.23223 8.23223C7.76339 8.70107 7.5 9.33695 7.5 10C7.5 10.663 7.76339 11.2989 8.23223 11.7678C8.70108 12.2366 9.33696 12.5 10 12.5C10.663 12.5 11.2989 12.2366 11.7678 11.7678C12.2366 11.2989 12.5 10.663 12.5 10C12.5 9.33695 12.2366 8.70107 11.7678 8.23223C11.2989 7.76339 10.663 7.5 10 7.5Z" fill="#575756"/>
</svg>
