<svg width="24" height="24" viewBox="0 0 24 24" fill="none" xmlns="http://www.w3.org/2000/svg">
<path fill-rule="evenodd" clip-rule="evenodd" d="M18.97 3.65899C18.7611 3.45005 18.513 3.28432 18.24 3.17124C17.967 3.05817 17.6745 2.99997 17.379 2.99997C17.0835 2.99997 16.7909 3.05817 16.5179 3.17124C16.245 3.28432 15.9969 3.45005 15.788 3.65899L4.84799 14.599C4.14476 15.3023 3.74975 16.2562 3.74985 17.2508C3.74994 18.2454 4.14513 19.1993 4.84849 19.9025C5.55184 20.6057 6.50574 21.0007 7.50034 21.0006C8.49494 21.0005 9.44877 20.6053 10.152 19.902L17.845 12.209C17.9872 12.0765 18.1752 12.0044 18.3695 12.0078C18.5638 12.0112 18.7492 12.09 18.8866 12.2274C19.024 12.3648 19.1027 12.5502 19.1062 12.7445C19.1096 12.9388 19.0375 13.1268 18.905 13.269L11.212 20.962C10.7268 21.4599 10.1476 21.8564 9.50802 22.1287C8.86839 22.4009 8.18106 22.5434 7.48592 22.5479C6.79078 22.5524 6.10167 22.4188 5.45857 22.1548C4.81548 21.8909 4.2312 21.5019 3.73965 21.0103C3.24811 20.5188 2.85907 19.9345 2.59513 19.2914C2.33118 18.6483 2.19758 17.9592 2.20208 17.2641C2.20657 16.5689 2.34908 15.8816 2.62132 15.242C2.89356 14.6023 3.29012 14.0231 3.78799 13.538L14.727 2.59799C15.4303 1.89477 16.3842 1.49975 17.3788 1.49985C18.3734 1.49994 19.3273 1.89513 20.0305 2.59849C20.7337 3.30184 21.1287 4.25574 21.1286 5.25034C21.1285 6.24494 20.7333 7.19877 20.03 7.90199L9.09699 18.835L9.08899 18.843L9.08199 18.85L9.07999 18.852L9.07699 18.854C8.64935 19.2531 8.08307 19.47 7.49821 19.4587C6.91335 19.4474 6.35589 19.2087 5.94402 18.7934C5.53214 18.378 5.29823 17.8185 5.29188 17.2336C5.28553 16.6486 5.50723 16.0842 5.90999 15.66L13.72 7.84999C13.8614 7.7133 14.0508 7.63762 14.2474 7.63923C14.4441 7.64085 14.6322 7.71963 14.7714 7.85862C14.9105 7.99762 14.9894 8.18569 14.9912 8.38234C14.993 8.57898 14.9175 8.76847 14.781 8.90999L6.97099 16.72C6.82936 16.8598 6.74906 17.0501 6.74775 17.249C6.74643 17.448 6.82422 17.6394 6.96399 17.781C7.10376 17.9226 7.29406 18.0029 7.49304 18.0042C7.69201 18.0055 7.88336 17.9278 8.02499 17.788L18.97 6.83999C19.1789 6.63106 19.3447 6.38302 19.4577 6.11003C19.5708 5.83705 19.629 5.54447 19.629 5.24899C19.629 4.95351 19.5708 4.66093 19.4577 4.38794C19.3447 4.11496 19.1789 3.86792 18.97 3.65899Z" fill="#243347"/>
</svg>
