<svg width="16" height="17" viewBox="0 0 16 17" fill="none" xmlns="http://www.w3.org/2000/svg">
<path d="M15.2461 7.3689H14.2617V6.57633C14.2627 6.33425 14.2164 6.09434 14.1255 5.87033C14.0346 5.64633 13.9008 5.44261 13.7318 5.27085C13.5628 5.09909 13.362 4.96264 13.1407 4.86932C12.9195 4.776 12.6822 4.72764 12.4424 4.727H8.62305V3.51927C8.88688 3.40577 9.11099 3.21508 9.26646 2.97179C9.42193 2.72849 9.50165 2.44375 9.49533 2.15429C9.49123 1.75663 9.33188 1.37665 9.0519 1.09691C8.77191 0.817175 8.39391 0.660263 8 0.660263C7.60609 0.660263 7.22809 0.817175 6.9481 1.09691C6.66812 1.37665 6.50877 1.75663 6.50467 2.15429C6.49835 2.44375 6.57807 2.72849 6.73354 2.97179C6.88901 3.21508 7.11312 3.40577 7.37695 3.51927V4.727H3.55763C3.31785 4.72764 3.08054 4.776 2.85928 4.86932C2.63803 4.96264 2.43717 5.09909 2.26819 5.27085C2.09922 5.44261 1.96544 5.64633 1.87452 5.87033C1.7836 6.09434 1.73732 6.33425 1.73832 6.57633V7.3689H0.753895C0.654843 7.36872 0.55673 7.38829 0.465184 7.42648C0.373637 7.46466 0.290459 7.52072 0.220418 7.59143C0.150377 7.66214 0.0948528 7.74612 0.0570286 7.83854C0.0192044 7.93097 -0.000175233 8.03002 1.23941e-06 8.13002V11.0613C-0.000178527 11.1613 0.0191987 11.2603 0.0570217 11.3528C0.0948448 11.4452 0.150369 11.5292 0.220411 11.5999C0.290452 11.6706 0.373632 11.7266 0.46518 11.7648C0.556728 11.803 0.654842 11.8226 0.753895 11.8224H1.73832V12.6213C1.73759 13.1092 1.92883 13.5775 2.27 13.9231C2.61116 14.2687 3.07432 14.4634 3.55763 14.4643H4.38629L6.87227 16.6218V14.4643H12.4424C12.9257 14.4634 13.3888 14.2687 13.73 13.9231C14.0712 13.5775 14.2624 13.1092 14.2617 12.6213V11.8224H15.2461C15.3452 11.8226 15.4433 11.803 15.5348 11.7648C15.6264 11.7266 15.7095 11.6706 15.7796 11.5999C15.8496 11.5292 15.9052 11.4452 15.943 11.3528C15.9808 11.2603 16.0002 11.1613 16 11.0613V8.13002C16.0002 8.03002 15.9808 7.93097 15.943 7.83854C15.9051 7.74612 15.8496 7.66214 15.7796 7.59143C15.7095 7.52072 15.6264 7.46466 15.5348 7.42648C15.4433 7.38829 15.3452 7.36872 15.2461 7.3689ZM10.4112 7.46954C10.5729 7.47496 10.7261 7.5436 10.8386 7.66098C10.9511 7.77835 11.0139 7.93526 11.0139 8.09857C11.0139 8.26188 10.9511 8.41879 10.8386 8.53616C10.7261 8.65354 10.5729 8.72218 10.4112 8.72759C10.2495 8.72218 10.0963 8.65354 9.98383 8.53616C9.87136 8.41879 9.80849 8.26188 9.80849 8.09857C9.80849 7.93526 9.87136 7.77835 9.98383 7.66098C10.0963 7.5436 10.2495 7.47496 10.4112 7.46954ZM5.58879 7.46954C5.75005 7.47555 5.90273 7.54445 6.01472 7.66176C6.12671 7.77907 6.18928 7.93565 6.18928 8.09857C6.18928 8.26149 6.12671 8.41807 6.01472 8.53538C5.90273 8.65269 5.75005 8.72159 5.58879 8.72759C5.42752 8.72159 5.27484 8.65269 5.16285 8.53538C5.05086 8.41807 4.98829 8.26149 4.98829 8.09857C4.98829 7.93565 5.05086 7.77907 5.16285 7.66176C5.27484 7.54445 5.42752 7.47555 5.58879 7.46954ZM10.7539 11.4135C9.95168 11.9963 8.98833 12.3099 8 12.3099C7.01166 12.3099 6.04832 11.9963 5.24611 11.4135C5.10813 11.3226 5.01158 11.1801 4.97769 11.0173C4.94381 10.8545 4.97536 10.6848 5.06542 10.5455C5.15548 10.4062 5.29666 10.3087 5.45791 10.2745C5.61915 10.2403 5.78726 10.2721 5.92523 10.3631C6.52861 10.8046 7.25477 11.0424 8 11.0424C8.74523 11.0424 9.47139 10.8046 10.0748 10.3631C10.2127 10.2745 10.3797 10.2444 10.5396 10.2793C10.6994 10.3141 10.8391 10.4112 10.9285 10.5495C11.0179 10.6877 11.0497 10.856 11.017 11.0177C10.9843 11.1795 10.8898 11.3217 10.7539 11.4135Z" fill="white"/>
</svg>
