<svg width="20" height="20" viewBox="0 0 20 20" fill="none" xmlns="http://www.w3.org/2000/svg">
<path fill-rule="evenodd" clip-rule="evenodd" d="M1 6C1 5.20435 1.31607 4.44129 1.87868 3.87868C2.44129 3.31607 3.20435 3 4 3H16C16.7956 3 17.5587 3.31607 18.1213 3.87868C18.6839 4.44129 19 5.20435 19 6V14C19 14.7956 18.6839 15.5587 18.1213 16.1213C17.5587 16.6839 16.7956 17 16 17H4C3.20435 17 2.44129 16.6839 1.87868 16.1213C1.31607 15.5587 1 14.7956 1 14V6ZM5 7.5C5 6.96957 5.21071 6.46086 5.58579 6.08579C5.96086 5.71071 6.46957 5.5 7 5.5C7.53043 5.5 8.03914 5.71071 8.41421 6.08579C8.78929 6.46086 9 6.96957 9 7.5C9 8.03043 8.78929 8.53914 8.41421 8.91421C8.03914 9.28929 7.53043 9.5 7 9.5C6.46957 9.5 5.96086 9.28929 5.58579 8.91421C5.21071 8.53914 5 8.03043 5 7.5ZM7 10.5C6.22243 10.4998 5.46165 10.7262 4.81074 11.1516C4.15983 11.5769 3.647 12.1828 3.335 12.895C3.29443 12.9877 3.27304 13.0876 3.27211 13.1888C3.27118 13.29 3.29074 13.3903 3.32961 13.4838C3.36847 13.5772 3.42584 13.6618 3.49826 13.7325C3.57068 13.8031 3.65665 13.8584 3.751 13.895C4.78725 14.2959 5.8889 14.5011 7 14.5C8.11104 14.5014 9.21269 14.2966 10.249 13.896C10.3435 13.8594 10.4296 13.8041 10.5021 13.7334C10.5746 13.6626 10.632 13.5779 10.6709 13.4844C10.7097 13.3908 10.7293 13.2904 10.7283 13.1891C10.7272 13.0878 10.7057 12.9878 10.665 12.895C10.3529 12.1828 9.84004 11.5771 9.18915 11.1517C8.53827 10.7264 7.77754 10.4999 7 10.5ZM12 6.75C12 6.55109 12.079 6.36032 12.2197 6.21967C12.3603 6.07902 12.5511 6 12.75 6H15.25C15.4489 6 15.6397 6.07902 15.7803 6.21967C15.921 6.36032 16 6.55109 16 6.75C16 6.94891 15.921 7.13968 15.7803 7.28033C15.6397 7.42098 15.4489 7.5 15.25 7.5H12.75C12.5511 7.5 12.3603 7.42098 12.2197 7.28033C12.079 7.13968 12 6.94891 12 6.75ZM12 13.25C12 13.0511 12.079 12.8603 12.2197 12.7197C12.3603 12.579 12.5511 12.5 12.75 12.5H15.25C15.4489 12.5 15.6397 12.579 15.7803 12.7197C15.921 12.8603 16 13.0511 16 13.25C16 13.4489 15.921 13.6397 15.7803 13.7803C15.6397 13.921 15.4489 14 15.25 14H12.75C12.5511 14 12.3603 13.921 12.2197 13.7803C12.079 13.6397 12 13.4489 12 13.25ZM12.75 9.25C12.5511 9.25 12.3603 9.32902 12.2197 9.46967C12.079 9.61032 12 9.80109 12 10C12 10.1989 12.079 10.3897 12.2197 10.5303C12.3603 10.671 12.5511 10.75 12.75 10.75H15.25C15.4489 10.75 15.6397 10.671 15.7803 10.5303C15.921 10.3897 16 10.1989 16 10C16 9.80109 15.921 9.61032 15.7803 9.46967C15.6397 9.32902 15.4489 9.25 15.25 9.25H12.75Z" fill="#575756"/>
</svg>
