<svg width="17" height="10" viewBox="0 0 17 10" fill="none" xmlns="http://www.w3.org/2000/svg">
<path d="M8.4755 3.21733H6.88175C6.83629 2.95597 6.75249 2.72443 6.63033 2.52273C6.50817 2.31818 6.35618 2.14489 6.17436 2.00284C5.99254 1.8608 5.78516 1.75426 5.5522 1.68324C5.32209 1.60938 5.07351 1.57244 4.80646 1.57244C4.33203 1.57244 3.91158 1.69176 3.5451 1.9304C3.17862 2.16619 2.89169 2.51278 2.6843 2.97017C2.47692 3.42472 2.37322 3.98011 2.37322 4.63636C2.37322 5.30398 2.47692 5.86648 2.6843 6.32386C2.89453 6.77841 3.18146 7.12216 3.5451 7.35511C3.91158 7.58523 4.33061 7.70028 4.8022 7.70028C5.06357 7.70028 5.30788 7.66619 5.53516 7.59801C5.76527 7.52699 5.97124 7.4233 6.15305 7.28693C6.33771 7.15057 6.49254 6.98295 6.61754 6.78409C6.74538 6.58523 6.83345 6.35795 6.88175 6.10227L8.4755 6.1108C8.41584 6.52557 8.28658 6.91477 8.08771 7.27841C7.89169 7.64205 7.63459 7.96307 7.31641 8.24148C6.99822 8.51705 6.62607 8.73295 6.19993 8.8892C5.77379 9.04261 5.30078 9.11932 4.7809 9.11932C4.01385 9.11932 3.32919 8.94176 2.72692 8.58665C2.12464 8.23153 1.65021 7.71875 1.30362 7.0483C0.957031 6.37784 0.783736 5.57386 0.783736 4.63636C0.783736 3.69602 0.958452 2.89205 1.30788 2.22443C1.65732 1.55398 2.13317 1.04119 2.73544 0.686079C3.33771 0.330966 4.01953 0.153409 4.7809 0.153409C5.26669 0.153409 5.7184 0.221591 6.13601 0.357954C6.55362 0.494318 6.92578 0.694602 7.25249 0.958807C7.57919 1.22017 7.84766 1.54119 8.05788 1.92188C8.27095 2.29972 8.41016 2.73153 8.4755 3.21733ZM14.6662 2.67188C14.6264 2.29972 14.4588 2.00994 14.1634 1.80256C13.8707 1.59517 13.4901 1.49148 13.0213 1.49148C12.6918 1.49148 12.4091 1.54119 12.1733 1.64062C11.9375 1.74006 11.7571 1.875 11.6321 2.04545C11.5071 2.21591 11.4432 2.41051 11.4403 2.62926C11.4403 2.81108 11.4815 2.96875 11.5639 3.10227C11.6491 3.2358 11.7642 3.34943 11.9091 3.44318C12.054 3.53409 12.2145 3.6108 12.3906 3.6733C12.5668 3.7358 12.7443 3.78835 12.9233 3.83097L13.7415 4.03551C14.071 4.11222 14.3878 4.21591 14.6918 4.34659C14.9986 4.47727 15.2727 4.64205 15.5142 4.84091C15.7585 5.03977 15.9517 5.27983 16.0938 5.56108C16.2358 5.84233 16.3068 6.17187 16.3068 6.54972C16.3068 7.06108 16.1761 7.51136 15.9148 7.90057C15.6534 8.28693 15.2756 8.58949 14.7812 8.80824C14.2898 9.02415 13.6946 9.1321 12.9957 9.1321C12.3168 9.1321 11.7273 9.02699 11.2273 8.81676C10.7301 8.60653 10.3409 8.29972 10.0597 7.89631C9.78125 7.4929 9.63068 7.00142 9.60795 6.42188H11.1634C11.1861 6.72585 11.2798 6.97869 11.4446 7.1804C11.6094 7.3821 11.8239 7.53267 12.0881 7.6321C12.3551 7.73153 12.6534 7.78125 12.983 7.78125C13.3267 7.78125 13.6278 7.73011 13.8864 7.62784C14.1477 7.52273 14.3523 7.37784 14.5 7.19318C14.6477 7.00568 14.723 6.78693 14.7259 6.53693C14.723 6.30966 14.6563 6.12216 14.5256 5.97443C14.3949 5.82386 14.2116 5.69886 13.9759 5.59943C13.7429 5.49716 13.4702 5.40625 13.1577 5.3267L12.1648 5.07102C11.446 4.88636 10.8778 4.60653 10.4602 4.23153C10.0455 3.85369 9.83807 3.35227 9.83807 2.72727C9.83807 2.21307 9.97727 1.76278 10.2557 1.37642C10.5369 0.990057 10.919 0.690341 11.402 0.477272C11.8849 0.261363 12.4318 0.153409 13.0426 0.153409C13.6619 0.153409 14.2045 0.261363 14.6705 0.477272C15.1392 0.690341 15.5071 0.987216 15.7741 1.3679C16.0412 1.74574 16.179 2.1804 16.1875 2.67188H14.6662Z" fill="white"/>
</svg>
