<svg width="21" height="20" viewBox="0 0 21 20" fill="none" xmlns="http://www.w3.org/2000/svg">
<path d="M1.478 0.405014C1.34814 0.367355 1.21051 0.365501 1.07969 0.399649C0.94886 0.433797 0.829698 0.502677 0.73481 0.598999C0.639922 0.695322 0.572838 0.815504 0.540657 0.946828C0.508476 1.07815 0.512394 1.21573 0.551998 1.34501L2.984 9.25001H11.5C11.6989 9.25001 11.8897 9.32903 12.0303 9.46968C12.171 9.61034 12.25 9.8011 12.25 10C12.25 10.1989 12.171 10.3897 12.0303 10.5303C11.8897 10.671 11.6989 10.75 11.5 10.75H2.984L0.551998 18.655C0.512394 18.7843 0.508476 18.9219 0.540657 19.0532C0.572838 19.1845 0.639922 19.3047 0.73481 19.401C0.829698 19.4974 0.94886 19.5662 1.07969 19.6004C1.21051 19.6345 1.34814 19.6327 1.478 19.595C8.09297 17.6713 14.3309 14.6323 19.923 10.609C20.0196 10.5396 20.0983 10.4481 20.1526 10.3422C20.2069 10.2363 20.2353 10.119 20.2353 10C20.2353 9.88101 20.2069 9.76372 20.1526 9.65782C20.0983 9.55193 20.0196 9.46047 19.923 9.39101C14.3309 5.36766 8.09298 2.32866 1.478 0.405014Z" fill="#68B5C8"/>
</svg>
