<svg width="20" height="20" viewBox="0 0 20 20" fill="none" xmlns="http://www.w3.org/2000/svg">
<path d="M9.99999 9C10.7956 9 11.5587 8.68393 12.1213 8.12132C12.6839 7.55871 13 6.79565 13 6C13 5.20435 12.6839 4.44129 12.1213 3.87868C11.5587 3.31607 10.7956 3 9.99999 3C9.20434 3 8.44128 3.31607 7.87867 3.87868C7.31606 4.44129 6.99999 5.20435 6.99999 6C6.99999 6.79565 7.31606 7.55871 7.87867 8.12132C8.44128 8.68393 9.20434 9 9.99999 9ZM5.99999 8C5.99999 8.53043 5.78928 9.03914 5.4142 9.41421C5.03913 9.78929 4.53042 10 3.99999 10C3.46956 10 2.96085 9.78929 2.58578 9.41421C2.2107 9.03914 1.99999 8.53043 1.99999 8C1.99999 7.46957 2.2107 6.96086 2.58578 6.58579C2.96085 6.21071 3.46956 6 3.99999 6C4.53042 6 5.03913 6.21071 5.4142 6.58579C5.78928 6.96086 5.99999 7.46957 5.99999 8ZM1.48999 15.326C1.31928 15.229 1.19143 15.0711 1.13199 14.884C0.955795 14.3133 0.953948 13.7031 1.12668 13.1313C1.29942 12.5596 1.63888 12.0524 2.10158 11.6748C2.56429 11.2972 3.12919 11.0662 3.72393 11.0116C4.31868 10.9569 4.9162 11.081 5.43999 11.368C4.36362 12.4258 3.68992 13.8259 3.53499 15.327C3.51199 15.549 3.52099 15.769 3.55999 15.981C2.83015 15.9179 2.12329 15.6942 1.48999 15.326ZM16.44 15.98C17.1698 15.9172 17.8766 15.6939 18.51 15.326C18.6803 15.2288 18.8078 15.071 18.867 14.884C19.0435 14.3133 19.0455 13.7028 18.8729 13.1309C18.7003 12.559 18.3609 12.0517 17.8981 11.6739C17.4353 11.2961 16.8703 11.065 16.2754 11.0104C15.6805 10.9557 15.0829 11.0799 14.559 11.367C15.6363 12.4247 16.3107 13.8252 16.466 15.327C16.4883 15.5451 16.4795 15.7653 16.44 15.981V15.98ZM18 8C18 8.53043 17.7893 9.03914 17.4142 9.41421C17.0391 9.78929 16.5304 10 16 10C15.4696 10 14.9608 9.78929 14.5858 9.41421C14.2107 9.03914 14 8.53043 14 8C14 7.46957 14.2107 6.96086 14.5858 6.58579C14.9608 6.21071 15.4696 6 16 6C16.5304 6 17.0391 6.21071 17.4142 6.58579C17.7893 6.96086 18 7.46957 18 8ZM5.30399 16.19C5.20537 16.1017 5.12891 15.9914 5.08079 15.868C5.03267 15.7447 5.01424 15.6118 5.02699 15.48C5.15419 14.2495 5.73303 13.1098 6.65165 12.2812C7.57026 11.4527 8.76341 10.9941 10.0005 10.9941C11.2376 10.9941 12.4307 11.4527 13.3493 12.2812C14.2679 13.1098 14.8468 14.2495 14.974 15.48C14.9868 15.6118 14.9684 15.7447 14.9203 15.8681C14.8722 15.9914 14.7957 16.1017 14.697 16.19C13.4112 17.3569 11.7364 18.0023 9.99999 18C8.26393 18.0022 6.58948 17.3568 5.30399 16.19Z" fill="#575756"/>
</svg>
